# xmcd
#
# Track frame offsets: 
#        150
#        10100
#        24875
#        34525
#        45088
#        57788
#        67900
#        79213
#        88750
#        98563
#
# Disc length: 1517 seconds
#
# Revision: 2
# Processed by: cddbd v1.5.2PL0 Copyright (c) Steve Scherf et al.
# Submitted via: ExactAudioCopyFreeDBPlugin 1.0
#
DISCID=6005eb0a
DTITLE=Slim Whitman - I'll Be Home For Christmas
DYEAR=1981
DGENRE=Christmas
TTITLE0=Joy To The World
TTITLE1=Angels We Have heard On high
TTITLE2=Deck The Halls
TTITLE3=Hark The Herald Angels Sing
TTITLE4=Oh, Come All Ye Faithful
TTITLE5=Jingle Bells
TTITLE6=I'll Be Home For Christmas
TTITLE7=Santa Claus Is Coming To Town
TTITLE8=Winter Wonderland
TTITLE9=Silver Bells
EXTD=
EXTT0=
EXTT1=
EXTT2=
EXTT3=
EXTT4=
EXTT5=
EXTT6=
EXTT7=
EXTT8=
EXTT9=
PLAYORDER=
